# xmcd
#
# Track frame offsets:
# 150
# 12422
# 24202
# 34422
# 45645
# 55547
# 65822
# 75442
# 85585
# 98617
# 106750
# 118975
# 130765
# 141520
# 152445
# 167087
# 177427
# 186747
# 199572
# 213642
#
# Disc length: 2992 seconds
#
#
# Revision: 0
# Processed by: cddbd v1.5.1PL2 Copyright (c) Steve Scherf et al.
# Submitted via: FreeRIP 2.945 
#
DISCID=0f0bae14
DTITLE=20 Golden Country Hits - 20 Golden Country Hits
DYEAR=1900
DGENRE=Country
TTITLE0=Charlie Rich - My Heart Cries For You
TTITLE1=Johnny Cash - I Walk The Line
TTITLE2=Glen Campbell - Walk Right In
TTITLE3=Patsy Cline - Walking After Midnight
TTITLE4=Buck Owens - Rhythm and Booze
TTITLE5=Conway Twitty - Born To Sing The Blues
TTITLE6=Jerry Lee Lewis - Movin On Down The Line
TTITLE7=Carl Perkins - Blue  Suede Shoes
TTITLE8=B J Thomas - Raindrops Keep Falling On My Head
TTITLE9=Roger Miller - Dear Heart
TTITLE10=Johnny Cash - Folson Prison Blues
TTITLE11=Webb Pierce - High Geard Daddy
TTITLE12=Glen Campbell - Redwing
TTITLE13=Patsy Cline - Just Out Of Reach
TTITLE14=George Jones - Cold Cold Heart
TTITLE15=Dave Dudley - Seven Lonely Day
TTITLE16=Jeannie C. Riley - The Girl Most Likely
TTITLE17=Faron Young - Im a Free Man Now
TTITLE18=Jimmy Dean - Release Me
TTITLE19=Carl Belew - am i That Easy To Forget
EXTD=
EXTT0=
EXTT1=
EXTT2=
EXTT3=
EXTT4=
EXTT5=
EXTT6=
EXTT7=
EXTT8=
EXTT9=
EXTT10=
EXTT11=
EXTT12=
EXTT13=
EXTT14=
EXTT15=
EXTT16=
EXTT17=
EXTT18=
EXTT19=
PLAYORDER=
